<?xml version="1.0" encoding="utf-8"?>
<!-- Generator: Adobe Illustrator 19.0.0, SVG Export Plug-In . SVG Version: 6.00 Build 0)  -->
<svg version="1.1" id="Layer_1" xmlns="http://www.w3.org/2000/svg" xmlns:xlink="http://www.w3.org/1999/xlink" x="0px" y="0px"
	 viewBox="0 0 204.2 154.5" style="enable-background:new 0 0 204.2 154.5;" xml:space="preserve">
<style type="text/css">
	.st0{fill:#F95050;}
	.st1{fill:#52F795;}
</style>
<path class="st0" d="M38.5,41.4c0.9-1.4,1.8-2.8,2.7-4.2c1.4-2.4,2.8-4.7,4.2-7.1c1.7-2.4,3.4-4.8,5.1-7.1c0.5-0.6,0.8-1.4,1.4-1.9
	c4.8-3.5,9.8-6.9,14.6-10.3c0.2,0.2,0.4,0.4,0.6,0.7c-3.6,3.7-7.4,7.2-10.8,11.1c-3.5,4-6.6,8.2-9.8,12.3c-0.9,1.5-1.8,3-2.7,4.4
	c-1.9,3-4.2,5.8-5.5,9.1c0.2,0.2,0.4,0.3,0.6,0.5c1.5-0.7,3.1-1.4,4.6-2.1c2.1,3.7,1.5,6-1.7,8c-1.9,1.2-3.8,2.6-5.6,4
	c-2,1.6-3.9,3.3-5.9,4.9c-0.2-0.1-0.4-0.3-0.6-0.4c0.7-4.3-0.1-8.9,2.6-12.9C34.4,47.5,36.4,44.5,38.5,41.4z"/>
<path class="st0" d="M45.3,30.2c-1.4,2.4-2.8,4.7-4.2,7.1c-0.7,0.4-1.4,0.9-2.2,1.1c-1.5,0.3-1.6-0.5-0.9-1.6c1.3-3,2.8-5.9,4-9
	c1.9-5.2,6.7-8,10-12c1.2-1.4,2.6-2.6,3.9-3.8c0,0.3,0,0.7,0,1c-3.1,4.6-6.3,9.2-9.4,13.9C45.8,27.8,45.7,29.1,45.3,30.2z"/>
<path class="st0" d="M113.3,93.4c0.1-0.8,0-1.9,0.4-2.3c1.8-1.5,3.9-2.8,6.1-4.3c17,16,34.1,32,51.1,48.1c-0.1,0.1-0.1,0.2-0.2,0.3
	c-3.9-1.6-7.7-3.3-11.6-4.9c-0.6-0.2-1.2-0.4-1.8-0.7c-7.5-3.1-14.3-2.9-21.5,1.8c-10.7,6.8-21.4,13.4-29.9,23.3
	c-2.3-3.4-4.5-6.8-6.8-9.9c-4.9-6.6-10.2-12.7-17.3-17c-5.8-3.6-11.9-4.3-18.3-1.7c-7.7,3.1-14.9,6.9-20.8,12.9
	c-0.4,0.5-1.2,0.9-1.8,0.9c-5.8-0.4-11.6-0.9-17.9-1.5c1.1-1.2,1.9-2,2.6-2.8c5.4-5.6,10.8-11.1,16.2-16.7c0.8-0.9,1.3-2.3,1.4-3.5
	c0.2-2.5,0.1-5.1,0-7.7c-0.1-1.7,0.5-2.3,2.3-2.4c13.9-0.9,27.7-2.5,41.4-5.2c2-0.4,4.2-0.2,6.2-0.3c2.1,2.1,4.3,4.3,6.4,6.4
	c0.2-0.1,0.4-0.3,0.6-0.4c-1.1-2.4-2.2-4.7-3.3-7.1c0.4-0.5,0.8-1.2,1.4-1.4c3.4-1.2,6.8-2.3,10.2-3.4c2.7,2.1,5.5,4.1,8.2,6.2
	c0.2-0.1,0.3-0.2,0.5-0.3C115.7,97.5,114.5,95.4,113.3,93.4z M105.4,135c0,1.1-0.3,2.2,0.1,2.6c0.6,0.6,1.9,1.1,2.5,0.8
	c1-0.5,2-1.6,2.3-2.6c0.4-1.6,1-2.5,2.6-3.2c3.7-1.7,4.3-6.3,1-8.3c-1.5-1-3.2-1.6-5.2-2.6c0,3.6,0,6.9,0,10.2
	c-2.7,0.4-4.4-0.7-5.2-2.8c-1.6-4.4,0.2-7.5,4.7-10c-5,1.2-7.4,4.2-7.3,8.1c0.1,4,1.6,5.5,6.3,6.4c0.6,0.1,1.6,0.9,1.5,1.2
	c-0.1,0.8-0.7,1.4-1.1,2.2C107.2,136.4,106.6,135.9,105.4,135z"/>
<path class="st0" d="M204.2,2.2c-4.3,1.3-8.7,2.8-13,4c-3.3,0.9-6.1,2.5-8.8,4.6c-8.8,6.9-17.7,13.8-26.6,20.4
	c-3.5,2.6-7.5,3.8-12.1,3.6C125,33.8,107,36.4,90,44.2c-1.7,0.8-3.3,1.7-4.8,3.1c19.3-10.1,39.8-13.1,61.1-11.4
	c0.2,0.2,0.3,0.4,0.5,0.7c-1,1-1.8,2.7-2.9,2.9c-8.2,1.5-13.8,7.1-19.9,11.9c-1.1,0.9-2.8,1.2-4.3,1.5c-0.5,0.1-1.5-0.4-1.7-0.9
	c-0.9-1.7-2.3-1.7-3.9-1.7c-5.2,0.1-10.1,1.3-14.8,3.2c0,0.2,0.1,0.4,0.1,0.6c0.7-0.1,1.5-0.3,2.2-0.4c4.2-0.7,8.4-1.6,12.7-2.1
	c2.4-0.3,3.9,2,3.3,4.3c-1.2,4.2-2.4,8.3-3.7,12.4c-0.2,0.6-1,1.3-1.6,1.4c-0.4,0.1-1.3-0.5-1.5-1C102.2,52.8,88.3,47,71.1,47
	c-0.4,0-0.8,0-1.2,0c-0.2,0-0.3-0.1-0.8-0.3c0.5-2.2,1.1-4.4,1.5-6.6c0.9-5.4,3-10.3,6.5-14.4c0.6-0.7,1.5-1.4,2.4-1.7
	c7.9-2.6,15.8-5.3,23.8-7.6c2.1-0.6,4.6,0.1,6.8,0c1.7,0,3.5,0,5.1-0.5C130.5,11,145.8,6,161,0.9c3.7-1.2,7.3-0.9,10.9-0.8
	c10.4,0.4,20.8,0.9,31.2,1.4c0.4,0,0.7,0.1,1.1,0.1C204.2,1.8,204.2,2,204.2,2.2z"/>
<path class="st0" d="M113.3,93.4c1.2,2,2.4,4.1,3.6,6.1c-0.2,0.1-0.3,0.2-0.5,0.3c-2.7-2.1-5.5-4.1-8.2-6.2
	c-0.1-0.5-0.3-1.1-0.4-1.4c-3.9,1.8-8,3.4-12.4,4c-1.1-2.3-2.1-4.5-3.2-6.8c-0.7-1.4-1.5-2.7-2.4-4.3c0.3,3.5,0.7,6.6,0.9,9.8
	c0.2,3.1-1.6,4.2-4.5,2.9c-0.5-0.2-1-0.4-1.5-0.7c-5.8-3.7-11.6-7.3-17.4-11c-1.8-1.1-3.4-1.6-5.4-0.7c-1.7,0.4-3.3,0.9-5,1.3
	c0,0.1,0.1,0.2,0.1,0.3c2.7-0.2,5.5-0.5,8.2-0.7c1.2,1,2.5,2.1,3.7,3.1c0,0.2,0,0.5-0.1,0.7c-2.2,0.5-4.3,0.9-6.5,1.4
	c-2.1,0.4-4.2,0.8-6.4,1.2c0.1,0.3,0.1,0.5,0.2,0.8c1.9-0.5,3.8-0.9,5.8-1.4c1.9,0,3.8-0.1,5.7,0c2.1,0.1,4.2,0.2,6.3,0.3
	c0.5,0.5,0.9,1,1.8,1.9c-2.7,0.5-4.9,1-7.1,1.4c-2,0.4-4,0.8-5.9,1.2c0,0.2,0.1,0.5,0.1,0.7c1.8-0.3,3.6-0.7,5.4-1
	c1.7,0,3.4,0.2,5-0.1c2.6-0.4,5-0.6,7.4,0.8c0.2,0.2,0.5,0.5,0.7,0.7c1.4,1.8-0.5,1.6-1.2,1.7c-7,1-14.1,2-21.1,2.8
	c-4,0.5-8.1,0.7-12.2,1c-0.9,0.1-1.7,0-3,0c0.9-1.5,1.5-2.6,2.2-3.7c2.3-3.6,4.5-7.2,7-10.6c1-1.5,0.9-2.5-0.2-3.8
	c-2-2.4-3.9-4.9-5.7-7.4c-0.9-1.3-1.7-1.7-3.4-1C30.3,82.4,16.5,87.6,2.8,92.8c-0.7,0.3-1.5,0.5-2.4,0.8c-0.6-1.7-0.5-2.9,0.9-4.1
	C6.5,85,11.6,80.2,17.1,76c2.6-2,6-3.1,9.2-4c4.8-1.4,8.3-3.8,11.4-8.1C45,53.7,55.9,49.2,68.1,48.1c7.8-0.7,15.5,0.3,22.8,3.4
	c12.9,5.6,19.7,16,22.8,29.3c0.5,2,0.8,4.1,1,6.1c0.2,2.5-0.8,3.4-3.8,3.4C111.8,91.4,112.5,92.4,113.3,93.4z M107.3,89.8
	c0.1,0,0.2-0.1,0.4-0.1c-0.5-2.9-1.1-5.9-1.6-8.8c-0.2,0.1-0.5,0.1-0.7,0.2C105.9,84,106.6,86.9,107.3,89.8z"/>
<path class="st0" d="M50.7,91.2c-2,3.1-3.8,6.2-5.9,9.1c-1.9,2.6-3.1,5.4-2.5,8.7c0.9,5.5-1.2,9.6-5.2,13.4
	c-2.8,2.7-6.1,2.8-9.3,3.7c-1.3,0.4-2.6,1.1-3.4,2.1c-2.7,3.4-5.2,7.1-7.9,10.6c-0.7,0.9-1.8,1.8-2.9,2.3c-3.4,1.4-6.8,2.7-10.8,4.2
	c0.4-1.2,0.6-1.8,0.9-2.4c3.5-6.9,6.9-13.9,10.5-20.8c0.8-1.5,0.8-2.8,0.2-4.3c-1.8-4.4-3.4-8.8-5.2-13.1c-0.5-1.3-0.4-2,0.8-2.7
	c3.5-2.2,7-4.5,10.5-6.6c0.6-0.4,1.6-0.3,2.4-0.2c0.4,0,0.9,0.3,1.3,0.6c4.6,3.2,9.1,2.6,13.8,0.2c4-2,8.2-3.4,12.3-5
	C50.4,91,50.6,91.1,50.7,91.2z"/>
<path class="st0" d="M38.5,41.4c-2,3-4.1,6.1-6.1,9.1c-2.7,4-1.9,8.6-2.6,12.9c0.2,0.1,0.4,0.3,0.6,0.4c2-1.6,3.9-3.3,5.9-4.9
	c1.8-1.4,3.7-2.8,5.6-4c3.2-2.1,3.7-4.3,1.7-8c-1.5,0.7-3.1,1.4-4.6,2.1c-0.2-0.2-0.4-0.3-0.6-0.5c1.3-3.3,3.6-6.1,5.5-9.1
	c0.6-0.5,1.1-1.3,1.8-1.4c8.2-1.9,16.5-3.7,25.3-5.6c-0.3,1.6-0.6,2.8-0.9,3.9c-0.8,3-1.7,6-2.4,9c-0.3,1.5-1,2-2.6,2.2
	c-11.1,1.5-20.7,6-27.9,14.8c-0.4,0.4-0.8,0.8-1,1.3c-1.6,4.2-5.1,5.6-9.1,6.7c-2.9,0.8-5.7,2.1-8.8,3.4c0.2-0.8,0.4-1.3,0.6-1.9
	c4.4-9.3,9-18.5,13.2-27.9c1.4-3.2,3.4-4.5,6.9-4.4C38.8,40.3,38.6,40.9,38.5,41.4z"/>
<path class="st1" d="M18.2,87.9c4.5-1.7,8.7-3.4,12.9-5c4.2-1.6,8.5-3.2,12.7-4.9c1.4-0.5,2.2-0.3,3,0.9c1.7,2.3,3.5,4.6,5.2,6.9
	c1.6,2.1,1.4,2.9-1,3.9c-5.2,2.1-10.7,3.8-15.7,6.4c-5,2.6-8.5-0.5-12.5-2c-0.2-0.1-0.5-0.3-0.5-0.5C22.5,90.8,19.8,90,18.2,87.9z"
	/>
</svg>
